<svg width="369" height="369" viewBox="0 0 369 369" fill="none" xmlns="http://www.w3.org/2000/svg">
<rect width="369" height="369" fill="url(#paint0_radial_5683_113246)"/>
<path d="M234.262 146.489V182.226H225.843V146.489H234.262ZM242.926 146.489V153.141H217.425V146.489H242.926Z" fill="white"/>
<path d="M205.989 172.729C205.989 172.172 205.932 171.673 205.818 171.231C205.719 170.773 205.515 170.348 205.204 169.955C204.909 169.562 204.46 169.17 203.854 168.777C203.249 168.368 202.439 167.942 201.424 167.501C200.148 166.977 198.896 166.388 197.669 165.733C196.442 165.063 195.337 164.285 194.356 163.402C193.39 162.502 192.613 161.454 192.024 160.26C191.435 159.049 191.141 157.642 191.141 156.038C191.141 154.5 191.435 153.117 192.024 151.89C192.63 150.647 193.456 149.591 194.503 148.724C195.567 147.84 196.818 147.169 198.258 146.711C199.698 146.237 201.269 145.999 202.971 145.999C205.229 145.999 207.217 146.458 208.935 147.374C210.669 148.274 212.019 149.558 212.984 151.227C213.966 152.88 214.457 154.836 214.457 157.094H206.088C206.088 156.194 205.973 155.4 205.744 154.713C205.515 154.026 205.155 153.486 204.664 153.093C204.19 152.7 203.56 152.504 202.774 152.504C202.071 152.504 201.473 152.667 200.983 152.995C200.508 153.322 200.148 153.764 199.903 154.32C199.657 154.86 199.534 155.457 199.534 156.112C199.534 156.652 199.657 157.143 199.903 157.585C200.148 158.01 200.483 158.411 200.909 158.787C201.351 159.164 201.858 159.524 202.431 159.867C203.02 160.211 203.65 160.546 204.32 160.874C205.94 161.479 207.372 162.158 208.616 162.911C209.875 163.647 210.931 164.49 211.782 165.439C212.633 166.372 213.271 167.435 213.696 168.63C214.138 169.824 214.359 171.174 214.359 172.68C214.359 174.283 214.097 175.707 213.573 176.95C213.066 178.194 212.322 179.249 211.34 180.117C210.358 180.968 209.172 181.614 207.781 182.056C206.407 182.498 204.852 182.718 203.118 182.718C201.531 182.718 199.968 182.489 198.43 182.031C196.908 181.557 195.526 180.837 194.282 179.871C193.055 178.889 192.073 177.638 191.337 176.116C190.601 174.578 190.232 172.753 190.232 170.642H198.675C198.675 171.69 198.757 172.573 198.921 173.293C199.084 174.013 199.338 174.594 199.682 175.036C200.042 175.461 200.5 175.772 201.056 175.969C201.612 176.149 202.3 176.239 203.118 176.239C203.87 176.239 204.451 176.083 204.86 175.772C205.286 175.445 205.58 175.02 205.744 174.496C205.908 173.956 205.989 173.367 205.989 172.729Z" fill="white"/>
<path d="M177.688 146.489H186.106V170.813C186.106 173.595 185.607 175.869 184.609 177.636C183.611 179.387 182.212 180.672 180.412 181.49C178.612 182.308 176.485 182.717 174.031 182.717C171.593 182.717 169.466 182.308 167.65 181.49C165.833 180.672 164.41 179.387 163.379 177.636C162.365 175.869 161.857 173.595 161.857 170.813V146.489H170.3V170.813C170.3 172.286 170.431 173.407 170.693 174.176C170.971 174.928 171.389 175.436 171.945 175.697C172.501 175.959 173.197 176.09 174.031 176.09C174.882 176.09 175.577 175.959 176.117 175.697C176.657 175.436 177.05 174.928 177.295 174.176C177.557 173.407 177.688 172.286 177.688 170.813V146.489Z" fill="white"/>
<path d="M133.438 146.489H145.661C148.05 146.489 150.12 146.898 151.871 147.716C153.621 148.534 154.963 149.745 155.896 151.349C156.845 152.953 157.319 154.932 157.319 157.289C157.319 159.334 157.058 161.044 156.534 162.419C156.027 163.793 155.307 164.93 154.374 165.83C153.441 166.714 152.345 167.442 151.085 168.015L148.361 169.61H138.764L138.715 162.959H145.465C146.234 162.959 146.872 162.762 147.379 162.37C147.886 161.977 148.263 161.421 148.508 160.701C148.77 159.964 148.901 159.089 148.901 158.074C148.901 157.043 148.778 156.16 148.533 155.423C148.287 154.687 147.927 154.123 147.453 153.73C146.995 153.337 146.397 153.141 145.661 153.141H141.832V182.226H133.438V146.489ZM149.269 182.226L142.937 166.419L151.822 166.37L158.277 181.858V182.226H149.269Z" fill="white"/>
<path d="M129.781 153.141H121.117V182.226H112.699V153.141H100.002V146.489H129.781V153.141Z" fill="white"/>
<path d="M157.843 186.438V193.173H144.895V200.804H155.705V207.291H144.895V215.916H157.769V222.627H136.395V186.438H157.843ZM172.831 202.146L177.504 186.438H186.625L177.181 209.628V222.627H168.531V209.628L159.062 186.438H168.184L172.831 202.146ZM202.007 186.438C204.509 186.438 206.663 186.968 208.469 188.029C210.291 189.089 211.691 190.547 212.669 192.403C213.663 194.242 214.16 196.347 214.16 198.716C214.16 201.053 213.663 203.091 212.669 204.831C211.691 206.57 210.291 207.929 208.469 208.907C206.663 209.868 204.509 210.348 202.007 210.348H197.882V222.627H189.382V186.438H202.007ZM240.111 193.173H227.162V200.804H237.974V207.291H227.162V215.916H240.037V222.627H218.662V186.438H240.111V193.173ZM255.916 186.438C258.335 186.438 260.431 186.852 262.204 187.68C263.977 188.509 265.336 189.735 266.28 191.359C267.241 192.983 267.722 194.988 267.722 197.374C267.722 199.445 267.456 201.177 266.926 202.569C266.412 203.96 265.683 205.112 264.739 206.023C264.1 206.629 263.383 207.16 262.592 207.622L268.69 222.253V222.627H259.569L254.452 209.851H252.039V222.627H243.539V186.438H255.916ZM197.882 203.613H202.007C202.852 203.613 203.531 203.405 204.045 202.991C204.575 202.577 204.957 202.005 205.188 201.276C205.437 200.53 205.561 199.694 205.562 198.766C205.562 197.772 205.437 196.852 205.188 196.007C204.957 195.162 204.575 194.483 204.045 193.969C203.531 193.439 202.852 193.173 202.007 193.173H197.882V203.613ZM252.039 203.116H255.717C256.495 203.116 257.142 202.917 257.655 202.519C258.169 202.121 258.55 201.558 258.799 200.829C259.064 200.083 259.196 199.197 259.196 198.169C259.196 197.126 259.073 196.231 258.824 195.485C258.576 194.739 258.211 194.168 257.73 193.77C257.267 193.372 256.662 193.173 255.916 193.173H252.039V203.116Z" fill="white"/>
<path d="M108.129 158.215V202.432L100.002 214.469L100.002 158.214L108.129 158.215Z" fill="white"/>
<path d="M129.479 186.639L118.416 202.427L132.809 222.447H123.224L108.128 202.427L119.192 186.639H129.479Z" fill="white"/>
<rect x="103.782" y="212.585" width="4.27055" height="4.27077" fill="white"/>
<rect x="109.403" y="212.585" width="4.27055" height="4.27077" fill="white"/>
<rect x="103.782" y="218.177" width="4.27055" height="4.27077" fill="white"/>
<rect x="109.403" y="218.177" width="4.27055" height="4.27077" fill="white"/>
<defs>
<radialGradient id="paint0_radial_5683_113246" cx="0" cy="0" r="1" gradientUnits="userSpaceOnUse" gradientTransform="translate(246.251 236.725) rotate(-104.287) scale(269.753 283.518)">
<stop stop-color="#305EFF"/>
<stop offset="1" stop-color="#1D3999"/>
</radialGradient>
</defs>
</svg>
