<svg width="169" height="77" viewBox="0 0 169 77" fill="none" xmlns="http://www.w3.org/2000/svg">
<path d="M134.262 0.489746V36.227H125.843V0.489746H134.262ZM142.926 0.489746V7.14139H117.425V0.489746H142.926Z" fill="white"/>
<path d="M105.989 26.7293C105.989 26.173 105.932 25.6739 105.818 25.2321C105.719 24.7739 105.515 24.3485 105.204 23.9557C104.909 23.563 104.46 23.1703 103.854 22.7776C103.249 22.3685 102.439 21.9431 101.424 21.5013C100.148 20.9776 98.8963 20.3886 97.6691 19.734C96.4419 19.0631 95.3375 18.2859 94.3557 17.4023C93.3904 16.5023 92.6131 15.4551 92.0241 14.2605C91.4351 13.0497 91.1405 11.6424 91.1405 10.0388C91.1405 8.50069 91.4351 7.118 92.0241 5.89076C92.6295 4.64715 93.4558 3.59172 94.503 2.72447C95.5666 1.84086 96.8183 1.16997 98.2582 0.7118C99.6981 0.237267 101.269 0 102.971 0C105.229 0 107.217 0.45817 108.935 1.37451C110.669 2.27449 112.019 3.559 112.984 5.22805C113.966 6.88073 114.457 8.83613 114.457 11.0943H106.088C106.088 10.1943 105.973 9.40066 105.744 8.71341C105.515 8.02615 105.155 7.48617 104.664 7.09345C104.19 6.70073 103.56 6.50438 102.774 6.50438C102.071 6.50438 101.473 6.66801 100.983 6.99527C100.508 7.32254 100.148 7.76434 99.9026 8.32069C99.6572 8.86068 99.5344 9.45793 99.5344 10.1125C99.5344 10.6524 99.6572 11.1433 99.9026 11.5852C100.148 12.0106 100.483 12.4115 100.909 12.7878C101.351 13.1642 101.858 13.5242 102.431 13.8678C103.02 14.2114 103.65 14.5469 104.32 14.8742C105.94 15.4796 107.372 16.1587 108.616 16.9114C109.875 17.6477 110.931 18.4904 111.782 19.4395C112.633 20.3722 113.271 21.4358 113.696 22.6303C114.138 23.8248 114.359 25.1748 114.359 26.6802C114.359 28.2838 114.097 29.7074 113.573 30.951C113.066 32.1946 112.322 33.25 111.34 34.1173C110.358 34.9682 109.172 35.6145 107.781 36.0563C106.407 36.4981 104.852 36.719 103.118 36.719C101.531 36.719 99.968 36.49 98.43 36.0318C96.9083 35.5573 95.5257 34.8373 94.2821 33.8718C93.0549 32.8901 92.0732 31.6383 91.3369 30.1165C90.6006 28.5783 90.2324 26.7538 90.2324 24.643H98.6754C98.6754 25.6902 98.7572 26.5739 98.9208 27.2938C99.0845 28.0138 99.3381 28.5947 99.6817 29.0365C100.042 29.462 100.5 29.7729 101.056 29.9692C101.612 30.1492 102.3 30.2392 103.118 30.2392C103.87 30.2392 104.451 30.0838 104.86 29.7729C105.286 29.4456 105.58 29.0202 105.744 28.4965C105.908 27.9565 105.989 27.3675 105.989 26.7293Z" fill="white"/>
<path d="M77.688 0.489746H86.1065V24.8137C86.1065 27.5954 85.6074 29.8699 84.6093 31.6371C83.6112 33.388 82.2122 34.6725 80.4124 35.4907C78.6125 36.3088 76.4854 36.7179 74.031 36.7179C71.593 36.7179 69.4659 36.3088 67.6497 35.4907C65.8335 34.6725 64.41 33.388 63.3791 31.6371C62.3647 29.8699 61.8574 27.5954 61.8574 24.8137V0.489746H70.3004V24.8137C70.3004 26.2863 70.4313 27.4072 70.6931 28.1763C70.9713 28.929 71.3885 29.4363 71.9448 29.6981C72.5011 29.9599 73.1966 30.0908 74.031 30.0908C74.8819 30.0908 75.5773 29.9599 76.1172 29.6981C76.6572 29.4363 77.0499 28.929 77.2953 28.1763C77.5571 27.4072 77.688 26.2863 77.688 24.8137V0.489746Z" fill="white"/>
<path d="M33.4385 0.489746H45.6612C48.0501 0.489746 50.1199 0.898826 51.8707 1.71699C53.6215 2.53515 54.9632 3.74602 55.8958 5.34962C56.8449 6.95321 57.3194 8.93316 57.3194 11.2895C57.3194 13.3349 57.0576 15.0448 56.534 16.4193C56.0267 17.7938 55.3068 18.9311 54.3741 19.8311C53.4415 20.7147 52.3452 21.4428 51.0853 22.0155L48.361 23.611H38.7644L38.7153 16.9593H45.4648C46.2339 16.9593 46.872 16.763 47.3792 16.3702C47.8865 15.9775 48.2628 15.4212 48.5082 14.7012C48.77 13.9648 48.9009 13.0894 48.9009 12.0749C48.9009 11.044 48.7782 10.1604 48.5328 9.42406C48.2873 8.68771 47.9274 8.12318 47.4529 7.73047C46.9947 7.33775 46.3975 7.14139 45.6612 7.14139H41.8324V36.227H33.4385V0.489746ZM49.2691 36.227L42.9368 20.4201L51.8216 20.371L58.2766 35.8588V36.227H49.2691Z" fill="white"/>
<path d="M29.7808 7.14139H21.117V36.227H12.6985V7.14139H0.00195312V0.489746H29.7808V7.14139Z" fill="white"/>
<path d="M57.8428 40.4387V47.1741H44.8945V54.8049H55.7051V61.2913H44.8945V69.9163H57.7686V76.6272H36.3945V40.4387H57.8428ZM72.8311 56.1467L77.5039 40.4387H86.625L77.1807 63.6282V76.6272H68.5312V63.6282L59.0625 40.4387H68.1836L72.8311 56.1467ZM102.007 40.4387C104.509 40.4387 106.663 40.9691 108.469 42.0295C110.291 43.09 111.691 44.5479 112.669 46.4036C113.663 48.2428 114.16 50.3475 114.16 52.717C114.16 55.0533 113.663 57.0915 112.669 58.8313C111.691 60.571 110.291 61.9299 108.469 62.9075C106.663 63.8684 104.509 64.3489 102.007 64.3489H97.8818V76.6272H89.3818V40.4387H102.007ZM140.111 47.1741H127.162V54.8049H137.974V61.2913H127.162V69.9163H140.037V76.6272H118.662V40.4387H140.111V47.1741ZM155.916 40.4387C158.335 40.4387 160.431 40.8524 162.204 41.6809C163.977 42.5094 165.336 43.7358 166.28 45.3596C167.241 46.9834 167.722 48.9884 167.722 51.3743C167.722 53.4455 167.456 55.1777 166.926 56.5696C166.412 57.9611 165.683 59.1125 164.739 60.0237C164.1 60.6294 163.383 61.1609 162.592 61.6223L168.69 76.2542V76.6272H159.569L154.452 63.8518H152.039V76.6272H143.539V40.4387H155.916ZM97.8818 57.6135H102.007C102.852 57.6135 103.531 57.4057 104.045 56.9915C104.575 56.5772 104.957 56.0057 105.188 55.2766C105.437 54.5311 105.561 53.6945 105.562 52.7668C105.562 51.7728 105.437 50.853 105.188 50.0081C104.957 49.163 104.575 48.4836 104.045 47.97C103.531 47.4397 102.852 47.1741 102.007 47.1741H97.8818V57.6135ZM152.039 57.1165H155.717C156.495 57.1165 157.142 56.9173 157.655 56.5198C158.169 56.1221 158.55 55.5584 158.799 54.8293C159.064 54.0838 159.196 53.1974 159.196 52.1702C159.196 51.1263 159.073 50.2312 158.824 49.4856C158.576 48.74 158.211 48.1684 157.73 47.7708C157.267 47.3731 156.662 47.1741 155.916 47.1741H152.039V57.1165Z" fill="white"/>
<path d="M8.12855 12.2152V56.4325L0.00195312 68.4702L0.00196716 12.2151L8.12855 12.2152Z" fill="white"/>
<path d="M29.4793 40.6401L18.4156 56.4276L32.8091 76.448H23.2243L8.12793 56.4276L19.1917 40.6401H29.4793Z" fill="white"/>
<rect x="3.78223" y="66.5857" width="4.27055" height="4.27077" fill="white"/>
<rect x="9.40332" y="66.5857" width="4.27055" height="4.27077" fill="white"/>
<rect x="3.78223" y="72.178" width="4.27055" height="4.27077" fill="white"/>
<rect x="9.40332" y="72.178" width="4.27055" height="4.27077" fill="white"/>
</svg>
