<svg width="169" height="77" viewBox="0 0 169 77" fill="none" xmlns="http://www.w3.org/2000/svg">
<path d="M134.262 0.489258V36.2265H125.843V0.489258H134.262ZM142.926 0.489258V7.1409H117.425V0.489258H142.926Z" fill="#305EFF"/>
<path d="M105.989 26.7293C105.989 26.173 105.932 25.6739 105.818 25.2321C105.719 24.7739 105.515 24.3485 105.204 23.9557C104.909 23.563 104.46 23.1703 103.854 22.7776C103.249 22.3685 102.439 21.9431 101.424 21.5013C100.148 20.9776 98.8963 20.3886 97.6691 19.734C96.4419 19.0631 95.3375 18.2859 94.3557 17.4023C93.3904 16.5023 92.6131 15.4551 92.0241 14.2605C91.4351 13.0497 91.1405 11.6424 91.1405 10.0388C91.1405 8.50069 91.4351 7.118 92.0241 5.89076C92.6295 4.64715 93.4558 3.59172 94.503 2.72447C95.5666 1.84086 96.8183 1.16997 98.2582 0.7118C99.6981 0.237267 101.269 0 102.971 0C105.229 0 107.217 0.45817 108.935 1.37451C110.669 2.27449 112.019 3.559 112.984 5.22805C113.966 6.88073 114.457 8.83613 114.457 11.0943H106.088C106.088 10.1943 105.973 9.40066 105.744 8.71341C105.515 8.02615 105.155 7.48617 104.664 7.09345C104.19 6.70073 103.56 6.50438 102.774 6.50438C102.071 6.50438 101.473 6.66801 100.983 6.99527C100.508 7.32254 100.148 7.76434 99.9026 8.32069C99.6572 8.86068 99.5344 9.45794 99.5344 10.1125C99.5344 10.6524 99.6572 11.1433 99.9026 11.5852C100.148 12.0106 100.483 12.4115 100.909 12.7878C101.351 13.1642 101.858 13.5242 102.431 13.8678C103.02 14.2114 103.65 14.5469 104.32 14.8742C105.94 15.4796 107.372 16.1587 108.616 16.9114C109.875 17.6477 110.931 18.4904 111.782 19.4395C112.633 20.3722 113.271 21.4358 113.696 22.6303C114.138 23.8248 114.359 25.1748 114.359 26.6802C114.359 28.2838 114.097 29.7074 113.573 30.951C113.066 32.1946 112.322 33.25 111.34 34.1173C110.358 34.9682 109.172 35.6145 107.781 36.0563C106.407 36.4981 104.852 36.719 103.118 36.719C101.531 36.719 99.968 36.49 98.43 36.0318C96.9083 35.5573 95.5257 34.8373 94.2821 33.8718C93.0549 32.89 92.0732 31.6383 91.3369 30.1165C90.6006 28.5783 90.2324 26.7538 90.2324 24.643H98.6754C98.6754 25.6902 98.7572 26.5739 98.9208 27.2938C99.0845 28.0138 99.3381 28.5947 99.6817 29.0365C100.042 29.462 100.5 29.7729 101.056 29.9692C101.612 30.1492 102.3 30.2392 103.118 30.2392C103.87 30.2392 104.451 30.0838 104.86 29.7729C105.286 29.4456 105.58 29.0202 105.744 28.4965C105.908 27.9565 105.989 27.3675 105.989 26.7293Z" fill="#305EFF"/>
<path d="M77.688 0.489258H86.1065V24.8132C86.1065 27.5949 85.6074 29.8694 84.6093 31.6366C83.6112 33.3875 82.2122 34.672 80.4124 35.4902C78.6125 36.3083 76.4854 36.7174 74.031 36.7174C71.593 36.7174 69.4659 36.3083 67.6497 35.4902C65.8335 34.672 64.41 33.3875 63.3791 31.6366C62.3647 29.8694 61.8574 27.5949 61.8574 24.8132V0.489258H70.3004V24.8132C70.3004 26.2859 70.4313 27.4067 70.6931 28.1758C70.9713 28.9285 71.3885 29.4358 71.9448 29.6976C72.5011 29.9594 73.1966 30.0903 74.031 30.0903C74.8819 30.0903 75.5773 29.9594 76.1172 29.6976C76.6572 29.4358 77.0499 28.9285 77.2953 28.1758C77.5571 27.4067 77.688 26.2859 77.688 24.8132V0.489258Z" fill="#305EFF"/>
<path d="M33.4385 0.489258H45.6612C48.0501 0.489258 50.1199 0.898338 51.8707 1.7165C53.6215 2.53466 54.9632 3.74554 55.8958 5.34913C56.8449 6.95273 57.3194 8.93267 57.3194 11.289C57.3194 13.3344 57.0576 15.0443 56.534 16.4188C56.0267 17.7934 55.3068 18.9306 54.3741 19.8306C53.4415 20.7142 52.3452 21.4423 51.0853 22.0151L48.361 23.6105H38.7644L38.7153 16.9588H45.4648C46.2339 16.9588 46.872 16.7625 47.3792 16.3698C47.8865 15.977 48.2628 15.4207 48.5082 14.7007C48.77 13.9644 48.9009 13.0889 48.9009 12.0744C48.9009 11.0435 48.7782 10.1599 48.5328 9.42357C48.2873 8.68723 47.9274 8.12269 47.4529 7.72998C46.9947 7.33726 46.3975 7.1409 45.6612 7.1409H41.8324V36.2265H33.4385V0.489258ZM49.2691 36.2265L42.9368 20.4196L51.8216 20.3706L58.2766 35.8583V36.2265H49.2691Z" fill="#305EFF"/>
<path d="M29.7808 7.1409H21.117V36.2265H12.6985V7.1409H0.00195312V0.489258H29.7808V7.1409Z" fill="#305EFF"/>
<path d="M57.8428 40.4385V47.1738H44.8945V54.8047H55.7051V61.291H44.8945V69.916H57.7686V76.627H36.3945V40.4385H57.8428ZM72.8311 56.1465L77.5039 40.4385H86.625L77.1807 63.6279V76.627H68.5312V63.6279L59.0625 40.4385H68.1836L72.8311 56.1465ZM102.007 40.4385C104.509 40.4385 106.663 40.9689 108.469 42.0293C110.291 43.0897 111.691 44.5476 112.669 46.4033C113.663 48.2426 114.16 50.3473 114.16 52.7168C114.16 55.0531 113.663 57.0913 112.669 58.8311C111.691 60.5707 110.291 61.9297 108.469 62.9072C106.663 63.8682 104.509 64.3486 102.007 64.3486H97.8818V76.627H89.3818V40.4385H102.007ZM140.111 47.1738H127.162V54.8047H137.974V61.291H127.162V69.916H140.037V76.627H118.662V40.4385H140.111V47.1738ZM155.916 40.4385C158.335 40.4385 160.431 40.8522 162.204 41.6807C163.977 42.5092 165.336 43.7355 166.28 45.3594C167.241 46.9831 167.722 48.9881 167.722 51.374C167.722 53.4453 167.456 55.1775 166.926 56.5693C166.412 57.9609 165.683 59.1122 164.739 60.0234C164.1 60.6291 163.383 61.1606 162.592 61.6221L168.69 76.2539V76.627H159.569L154.452 63.8516H152.039V76.627H143.539V40.4385H155.916ZM97.8818 57.6133H102.007C102.852 57.6133 103.531 57.4055 104.045 56.9912C104.575 56.577 104.957 56.0054 105.188 55.2764C105.437 54.5309 105.561 53.6943 105.562 52.7666C105.562 51.7726 105.437 50.8528 105.188 50.0078C104.957 49.1628 104.575 48.4834 104.045 47.9697C103.531 47.4395 102.852 47.1738 102.007 47.1738H97.8818V57.6133ZM152.039 57.1162H155.717C156.495 57.1162 157.142 56.917 157.655 56.5195C158.169 56.1219 158.55 55.5582 158.799 54.8291C159.064 54.0835 159.196 53.1972 159.196 52.1699C159.196 51.126 159.073 50.231 158.824 49.4854C158.576 48.7398 158.211 48.1682 157.73 47.7705C157.267 47.3728 156.662 47.1738 155.916 47.1738H152.039V57.1162Z" fill="#192839"/>
<path d="M8.12855 12.215V56.4323L0.00195312 68.4699L0.00196716 12.2148L8.12855 12.215Z" fill="#192839"/>
<path d="M29.4793 40.6396L18.4156 56.4271L32.8091 76.4475H23.2243L8.12793 56.4271L19.1917 40.6396H29.4793Z" fill="#192839"/>
<rect x="3.78223" y="66.5859" width="4.27055" height="4.27077" fill="#192839"/>
<rect x="9.40332" y="66.5859" width="4.27055" height="4.27077" fill="#192839"/>
<rect x="3.78223" y="72.1777" width="4.27055" height="4.27077" fill="#192839"/>
<rect x="9.40332" y="72.1777" width="4.27055" height="4.27077" fill="#192839"/>
</svg>
