<svg preserveAspectRatio="none" width="100%" height="100%" overflow="visible" style="display: block;" viewBox="0 0 559.984 353.242" fill="none" xmlns="http://www.w3.org/2000/svg">
<path id="Vector" opacity="0.3" d="M296.058 283.755C295.779 284.155 295.462 284.533 295.226 284.957C293.747 287.611 291.459 289.037 288.464 289.148C286.72 289.213 284.941 289.095 283.219 288.809C280.072 288.285 277.033 287.301 274.222 285.786C272.947 285.099 271.701 284.201 270.731 283.135C268.187 280.34 268.142 276.643 270.424 273.624C271.845 271.744 273.772 270.572 275.958 269.825C280.451 268.291 284.988 268.338 289.527 269.62C290.658 269.939 291.762 270.356 293.208 270.839C292.76 270.264 292.559 269.87 292.243 269.624C290.724 268.442 289.192 267.274 287.628 266.151C286.434 265.293 285.192 264.501 283.958 263.7C283.629 263.486 283.26 263.327 282.896 263.177C273.485 259.309 263.731 256.856 253.57 256.106C248.761 255.752 243.95 255.412 239.135 255.138C232.139 254.74 225.464 253.174 219.15 250.068C212.684 246.887 206.193 243.757 199.672 240.692C192.975 237.544 186.026 235.121 178.749 233.667C167.784 231.477 156.976 232.141 146.252 235.193C139.354 237.155 132.796 239.987 126.18 242.69C120.984 244.813 115.739 246.821 110.473 248.764C108.892 249.348 107.182 249.641 105.504 249.878C104.523 250.016 103.454 249.92 102.487 249.679C101.3 249.382 101.046 248.327 101.941 247.486C102.631 246.837 103.453 246.241 104.324 245.888C107.054 244.783 109.781 243.616 112.606 242.811C120.207 240.645 127.604 237.959 134.813 234.729C145.26 230.049 156.24 228.681 167.579 229.462C180.193 230.332 192.562 232.559 204.71 236.03C211.113 237.859 217.19 240.528 223.198 243.367C229.053 246.134 235.006 248.636 241.341 250.138C246.678 251.403 252.09 251.842 257.554 251.842C258.008 251.842 258.461 251.795 258.914 251.765C260.641 251.649 261.865 250.755 262.281 249.116C262.682 247.537 263.015 245.879 262.985 244.264C262.872 238.138 262.669 232.011 262.366 225.892C262.114 220.792 261.703 215.7 261.307 210.608C261.14 208.46 260.876 206.317 260.576 204.183C260.316 202.328 260.698 200.755 261.98 199.315C264.159 196.865 265 193.843 264.974 190.653C264.94 186.4 264.732 182.147 264.486 177.9C264.201 172.973 263.734 168.056 263.467 163.127C263.348 160.92 263.517 158.716 264.647 156.68C265.427 155.274 265.224 153.706 265.012 152.175C264.696 149.89 265.015 149.307 267.278 148.865C269.497 148.431 270.282 147.388 270.217 145.039C270.2 144.417 270.131 143.793 270.051 143.175C269.971 142.559 269.847 141.949 269.703 141.108C268.268 142.411 266.578 142.29 264.893 142.285C262.733 142.278 262.033 142.817 261.767 145.013C261.516 147.093 261.453 149.2 261.404 151.298C261.216 159.199 261.822 167.061 262.56 174.919C263.129 180.971 263.471 187.036 262.662 193.098C262.49 194.387 262.296 195.698 261.886 196.923C261.594 197.794 260.92 198.536 260.421 199.338C260.158 199.761 259.889 200.182 259.649 200.618C258.943 201.898 258.145 202.198 256.84 201.508C255.227 200.656 253.755 199.604 252.569 198.179C251.035 196.336 250.701 194.343 251.746 192.168C252.113 191.403 252.527 190.655 252.981 189.938C253.637 188.904 253.643 187.922 252.906 186.939C252.804 186.803 252.73 186.645 252.624 186.513C251.293 184.844 251.237 183.08 252.312 181.29C253.023 180.108 253.08 179.099 252.252 177.87C251.077 176.124 250.982 174.147 251.768 172.166C251.998 171.585 252.325 171.027 252.448 170.426C252.566 169.854 252.67 169.149 252.444 168.658C251.493 166.588 251.6 164.46 251.876 162.305C252.027 161.123 252.211 159.945 252.399 158.769C252.543 157.864 252.351 157.118 251.632 156.475C250.308 155.289 249.713 153.845 250.214 152.039C250.306 151.707 250.273 151.188 250.069 150.952C248.621 149.279 248.461 147.395 248.99 145.355C249.044 145.147 248.997 144.912 248.997 144.557C242.659 142.087 239.373 137.262 238.799 130.591C238.237 124.062 240.171 118.49 245.753 114.459C245.406 114.051 245.153 113.762 244.91 113.466C242.544 110.579 241.662 107.281 242.211 103.6C242.277 103.159 242.372 102.673 242.616 102.322C242.799 102.061 243.396 101.759 243.548 101.862C244.313 102.375 244.798 101.807 245.398 101.563C247.184 100.837 248.985 100.147 250.786 99.4584C253.233 98.5236 255.607 97.4494 257.724 95.8806C259.608 94.4842 260.961 92.7177 261.483 90.3827C262.068 87.7695 261.03 85.7971 258.526 84.8114C256.654 84.0745 254.71 84.1099 252.833 84.6159C250.706 85.1895 248.632 85.9717 246.558 86.725C244.365 87.5211 242.942 89.1951 241.748 91.1134C240.979 92.3484 240.945 93.5445 241.744 94.7817C242.42 95.8301 243.08 96.8925 243.679 97.9863C243.973 98.523 244.226 99.1342 244.281 99.7318C244.321 100.166 244.13 100.842 243.816 101.028C243.487 101.222 242.809 101.096 242.42 100.872C239.674 99.2865 238.164 94.9959 239.448 92.0641C240.003 90.7961 240.942 89.6797 241.798 88.5649C242.795 87.2664 243.928 86.0727 244.936 84.7825C245.984 83.4416 246.894 81.991 247.971 80.6757C249.621 78.661 251.362 76.721 253.118 74.687C252.743 74.818 252.353 74.9243 251.987 75.0859C245.839 77.8012 241.982 82.5469 239.842 88.8113C239.292 90.421 238.823 92.0671 238.146 93.6222C237.632 94.8036 236.989 95.9895 236.154 96.9585C234.37 99.0282 231.969 98.5656 231.252 95.9585C230.716 94.0109 230.437 91.951 230.354 89.9284C230.108 83.9101 230.514 77.9027 230.917 71.8983C231.198 67.7093 231.268 63.5003 231.713 59.3301C232.018 56.4706 232.638 53.6157 233.413 50.8415C234.689 46.2775 237.01 42.2316 240.546 39.0372C244.672 35.3103 248.89 31.6812 253.162 28.1213C261.317 21.3245 269.529 14.5977 277.737 7.86436C279.447 6.46124 281.197 5.09979 282.997 3.81544C288.06 0.204241 293.649 -0.881424 299.659 0.72039C307.66 2.8525 315.641 5.06077 323.608 7.3139C328.178 8.60617 332.407 10.753 336.324 13.3698C344.536 18.8557 353.459 22.899 362.422 26.9229C368.433 29.6213 374.561 31.9979 380.693 34.3845C387.367 36.982 393.807 40.0886 399.96 43.7556C406.258 47.5089 412.694 50.975 419.493 53.7422C420.595 54.1906 421.676 54.7002 422.734 55.2458C427.465 57.685 429.308 61.0124 428.776 66.3514C428.552 68.6051 428.237 70.8641 427.757 73.0759C425.552 83.244 422.248 93.0825 418.622 102.816C418.151 104.083 417.529 105.32 416.805 106.462C415.266 108.888 413.146 109.813 410.379 109.094C408.53 108.613 406.704 107.904 405 107.036C401.209 105.105 397.503 103.007 393.758 100.984C389.457 98.661 385.014 96.6661 380.354 95.1565C375.32 93.5253 370.143 93.0033 364.896 93.2065C360.305 93.3843 355.719 93.7321 351.133 94.0314C344.443 94.4682 337.745 94.613 331.051 94.2773C324.464 93.9468 317.979 92.8027 311.531 91.4507C308.478 90.8105 305.43 90.132 302.359 89.591C296.338 88.5304 290.468 89.3167 284.791 91.4392C281.5 92.6692 278.286 94.1132 275.076 95.5448C271.6 97.0942 268.155 98.6993 264.347 99.2899C263.959 99.3502 263.581 99.4957 263.208 99.6279C263.058 99.6807 262.934 99.804 262.65 99.994C264.327 101.202 265.284 102.833 265.675 104.909C267.215 104.986 268.676 105.105 270.138 105.117C271.405 105.128 272.479 104.651 273.106 103.472C273.79 102.187 274.928 101.71 276.29 101.495C277.574 101.292 278.868 101.061 280.102 100.668C281.16 100.33 281.288 99.8004 280.711 98.8388C280.393 98.3092 279.944 97.8594 279.565 97.3651C279.291 97.0068 278.958 96.6669 278.786 96.2616C278.407 95.3714 278.981 94.5985 279.932 94.7674C280.589 94.8839 281.222 95.1901 281.835 95.4755C283.069 96.0495 284.26 96.7214 285.51 97.2562C288.605 98.5803 291.983 97.6131 294.006 94.9048C294.802 93.8386 294.977 92.6504 294.893 91.3613C294.804 89.9893 295.195 89.5329 296.412 89.9352C299.1 90.8235 301.901 90.706 304.631 91.1372C309.162 91.853 313.656 92.8346 318.138 93.8297C326.447 95.6745 334.819 96.4084 343.328 95.8282C350.234 95.3573 357.153 95.0202 364.071 94.8032C371.413 94.573 378.509 96.0717 385.46 98.3358C385.675 98.4059 385.89 98.4813 386.096 98.5747C388.011 99.4401 388.517 100.631 387.701 102.545C387.324 103.428 386.858 104.282 386.354 105.101C384.689 107.808 382.972 110.483 381.304 113.189C378.495 117.745 376.089 122.5 374.554 127.646C373.54 131.043 372.992 134.501 373.685 138.059C374.716 143.358 378.308 146.522 383.709 146.789C387.192 146.961 390.458 146.087 393.568 144.573C396.872 142.965 399.716 140.722 402.32 138.158C406.508 134.033 410.019 129.364 413.236 124.467C421.673 111.627 427.591 97.7022 431.077 82.7456C432.608 76.1759 432.797 69.5997 430.959 63.0403C430.791 62.4429 430.66 61.8212 430.623 61.2042C430.546 59.9013 431.151 59.2832 432.453 59.3765C433.24 59.4327 434.028 59.6042 434.791 59.8112C452.975 64.7394 471.029 70.0804 488.58 76.9889C496.877 80.2551 505.045 83.812 512.678 88.4676C514.999 89.8833 517.209 91.4876 519.41 93.0885C520.272 93.7151 521.057 94.4993 521.716 95.3379C522.648 96.5231 522.213 97.439 520.73 97.4698C519.776 97.4894 518.798 97.3804 517.864 97.1778C512.579 96.0316 507.482 94.2499 502.505 92.1883C490.608 87.2602 478.794 82.1318 466.899 77.1982C459.46 74.1127 451.949 71.1981 444.439 68.2882C442.544 67.5541 440.55 67.0393 438.563 66.5923C436.509 66.1301 435.801 66.6262 435.581 68.7078C435.391 70.5066 435.356 72.3375 435.436 74.1459C435.795 82.305 434.481 90.2191 431.913 97.925C427.715 110.521 421.867 122.257 413.236 132.451C411.003 135.088 408.497 137.496 406.076 139.971C404.688 141.391 403.181 142.696 401.802 144.125C400.94 145.018 400.122 145.985 399.452 147.026C398.426 148.62 398.573 149.913 400.024 151.103C401.24 152.101 402.59 153.001 404.007 153.677C406.769 154.996 409.57 156.264 412.441 157.317C444.902 169.224 476.43 183.375 508.155 197.052C514.824 199.927 521.52 202.742 528.14 205.725C534.008 208.369 540.214 209.201 546.531 209.483C550.609 209.666 554.697 209.629 558.78 209.709C559.169 209.716 559.556 209.858 559.984 209.946C559.69 210.924 559.056 210.817 558.52 210.818C555.229 210.828 551.931 210.951 548.649 210.774C544.914 210.572 541.187 210.16 537.471 209.719C534.18 209.328 531.072 208.232 528.041 206.915C514.719 201.129 501.425 195.277 488.064 189.583C470.267 181.999 452.454 174.452 434.576 167.064C425.98 163.512 417.21 160.385 408.542 157.009C406.484 156.208 404.473 155.259 402.521 154.226C401.281 153.57 400.09 152.741 399.053 151.796C397.402 150.291 397.177 148.656 398.284 146.733C398.872 145.71 399.62 144.754 400.423 143.885C401.616 142.595 402.89 141.374 404.184 140.183C419.5 126.096 428.567 108.5 433.184 88.4324C434.257 83.767 434.448 78.9943 434.303 74.2096C434.251 72.51 434.307 70.8052 434.368 69.1048C434.39 68.4891 434.514 67.8612 434.694 67.2704C435.091 65.9755 435.83 65.3326 437.179 65.3756C438.412 65.4148 439.702 65.5296 440.853 65.9336C446.204 67.8109 451.588 69.6219 456.824 71.7857C468.305 76.5306 479.696 81.4958 491.142 86.3295C498.511 89.4417 505.898 92.5188 513.565 94.8468C515.299 95.3735 517.071 95.7812 518.836 96.2003C519.428 96.3409 520.053 96.346 520.856 96.1326C520.338 95.5854 519.864 94.9855 519.294 94.4997C515.948 91.6501 512.197 89.4051 508.357 87.3097C499.216 82.3216 489.574 78.4805 479.812 74.9185C465.093 69.5469 450.056 65.1962 434.964 61.0277C434.255 60.832 433.524 60.7112 432.797 60.5938C432.532 60.5508 432.248 60.6192 431.755 60.6507C431.833 61.256 431.835 61.8042 431.981 62.3109C434.212 70.0819 433.66 77.8186 431.637 85.5128C426.99 103.182 419.399 119.415 407.913 133.72C405.491 136.737 402.836 139.539 399.8 141.956C396.287 144.754 392.446 146.935 387.95 147.597C386.006 147.884 383.965 147.985 382.025 147.73C377.496 147.136 374.514 144.463 373.05 140.161C371.84 136.607 372.085 132.995 372.902 129.405C374.138 123.979 376.519 119.021 379.314 114.26C381.181 111.079 383.217 107.999 385.142 104.853C385.732 103.888 386.272 102.88 386.712 101.84C387.155 100.792 386.927 100.293 385.895 99.7876C385.288 99.4901 384.63 99.2891 383.984 99.0795C376.285 96.5817 368.396 95.5712 360.314 96.0499C354.763 96.3786 349.209 96.6627 343.659 97.0053C333.892 97.608 324.284 96.6646 314.803 94.2413C310.128 93.0465 305.409 92.0914 300.548 91.9606C299.099 91.9216 297.663 91.4484 296.218 91.1735C296.168 91.2699 296.078 91.3653 296.075 91.4637C295.884 96.9759 290.514 100.497 285.371 98.4486C284.214 97.9876 283.112 97.39 281.984 96.8571C281.488 96.6228 280.99 96.3928 280.328 96.3309C280.653 96.7498 280.987 97.1631 281.304 97.5887C282.872 99.6943 282.434 101.197 279.957 101.962C278.935 102.277 277.857 102.438 276.793 102.586C275.55 102.758 274.56 103.179 273.892 104.361C273.132 105.708 271.815 106.236 270.299 106.253C268.886 106.269 267.473 106.257 265.943 106.257C265.788 108.423 265.605 110.556 265.514 112.693C265.499 113.05 265.801 113.627 266.106 113.762C270.27 115.597 271.611 119.238 272.307 123.303C272.968 127.165 273.499 131.038 273.332 134.977C273.264 136.563 272.891 137.993 271.767 139.179C271.051 139.934 270.92 140.885 271.037 141.878C271.129 142.667 271.334 143.452 271.338 144.24C271.344 145.249 271.319 146.287 271.086 147.26C270.792 148.488 269.939 149.327 268.684 149.681C268.303 149.789 267.911 149.859 267.528 149.961C266.02 150.363 265.847 150.548 266.164 152.11C266.577 154.143 266.269 156.009 265.425 157.9C264.956 158.952 264.667 160.201 264.712 161.345C264.918 166.501 265.312 171.65 265.56 176.805C265.792 181.619 266.027 186.438 266.071 191.256C266.101 194.649 264.96 197.733 262.687 200.31C261.743 201.381 261.546 202.545 261.676 203.929C262.299 210.536 262.94 217.144 263.398 223.763C263.789 229.422 264 235.096 264.17 240.766C264.239 243.084 264.183 245.439 263.844 247.726C263.274 251.568 261.474 253.04 257.608 253.04C250.247 253.041 243.008 252.153 235.976 249.857C230.948 248.214 226.107 246.115 221.366 243.796C210.831 238.644 199.721 235.312 188.201 233.346C182.11 232.307 175.985 231.365 169.838 230.775C157.792 229.62 146.038 230.849 134.889 235.963C127.497 239.353 119.824 241.956 112.017 244.207C109.681 244.88 107.423 245.837 105.165 246.753C104.308 247.101 103.551 247.697 102.748 248.181C102.78 248.324 102.811 248.467 102.843 248.611C103.534 248.661 104.229 248.786 104.916 248.749C107.727 248.597 110.392 247.752 112.974 246.733C119.147 244.297 125.287 241.774 131.419 239.235C138.616 236.254 145.947 233.73 153.63 232.301C164.038 230.365 174.303 231.111 184.479 233.819C191.088 235.578 197.354 238.228 203.503 241.171C208.518 243.571 213.552 245.94 218.495 248.483C225.817 252.25 233.618 253.811 241.775 254.165C250.619 254.548 259.483 255.009 268.106 257.212C272.548 258.347 276.906 259.837 281.248 261.324C282.993 261.922 284.613 262.259 286.504 262.034C291.009 261.499 295.361 260.48 299.345 258.329C302.783 256.473 306.099 254.377 309.397 252.275C314.135 249.257 318.739 246.027 323.526 243.092C328.576 239.995 333.959 237.583 339.776 236.256C343.578 235.389 347.389 235.025 351.234 236.016C353.774 236.671 355.974 237.904 357.745 239.841C358.634 240.812 359.611 241.92 358.965 243.312C358.302 244.742 356.801 244.599 355.509 244.48C354.043 244.346 352.566 244.151 351.14 243.797C343.909 242 337.07 243.037 330.532 246.484C329.534 247.011 328.517 247.501 327.615 248.263C328.035 248.078 328.462 247.907 328.874 247.705C332.977 245.695 337.235 244.189 341.809 243.702C344.723 243.392 347.624 243.473 350.355 244.598C351.526 245.079 352.667 245.846 353.557 246.745C355.021 248.226 354.829 249.981 353.303 251.373C353.136 251.525 352.968 251.688 352.775 251.801C349.641 253.633 347.296 256.35 344.747 258.854C338.308 265.179 331.977 271.631 325.27 277.662C309.318 292.006 291.052 302.467 270.698 309.264C265.803 310.898 260.91 312.543 255.989 314.097C246.308 317.156 236.479 317.315 226.532 315.596C214.651 313.543 203.099 310.219 191.577 306.763C183.313 304.284 174.987 302.069 166.467 300.625C158.943 299.349 151.377 298.705 143.751 299.087C134.356 299.557 125.355 301.713 116.804 305.677C115.055 306.488 113.307 307.31 111.525 308.045C110.429 308.497 109.29 308.89 108.134 309.14C105.934 309.615 104.259 308.85 103.469 306.728C102.825 304.999 102.39 303.126 102.25 301.288C101.767 294.952 101.46 288.603 101.077 282.259C100.588 274.159 100.149 266.05 98.7661 258.041C98.3244 255.483 97.6297 252.948 96.8108 250.482C95.6656 247.034 93.1567 244.973 89.6122 244.16C85.984 243.328 82.3012 243.185 78.6097 243.366C62.4707 244.156 46.573 246.738 30.7896 250.048C26.0247 251.047 21.3356 252.437 16.6555 253.799C14.8755 254.316 13.1934 255.206 11.5149 256.026C10.3623 256.588 10.272 256.787 9.53962 257.949C10.4532 258.736 11.6073 258.859 12.6931 258.829C15.9209 258.738 19.1695 258.712 22.3664 258.311C33.879 256.868 45.0706 253.917 56.2469 250.894C61.7191 249.413 67.2402 248.106 72.7625 246.821C75.5326 246.177 78.3703 246.026 81.2235 246.163C85.3504 246.362 88.4562 248.234 90.6209 251.723C92.1941 254.258 93.1553 257.05 93.9352 259.899C95.4965 265.603 96.4513 271.427 97.0506 277.303C97.8982 285.612 98.2198 293.95 98.0275 302.298C97.799 312.229 97.3722 322.152 96.0308 332.006C95.711 334.355 95.17 336.699 94.4744 338.966C92.8275 344.335 89.1801 347.765 83.7456 349.114C81.1141 349.768 78.405 350.289 75.7058 350.452C69.5338 350.826 63.3475 351.003 57.1644 351.146C51.5459 351.276 45.9217 351.171 40.3042 351.322C33.3272 351.509 26.3523 351.808 19.3805 352.142C12.9176 352.452 6.46004 352.871 0 353.242C0 352.901 0 352.561 0 352.22C5.60361 351.848 11.2061 351.458 16.8112 351.109C33.1351 350.092 49.4845 350.059 65.8297 349.855C71.1092 349.79 76.3799 349.534 81.5767 348.484C82.1879 348.36 82.7957 348.214 83.398 348.052C88.5235 346.671 91.8704 343.449 93.4845 338.384C94.4906 335.226 94.9749 331.974 95.3165 328.702C96.7034 315.415 97.1494 302.09 96.6987 288.743C96.382 279.367 95.384 270.064 92.9962 260.962C92.4656 258.938 91.7145 256.969 90.9835 255.004C90.6498 254.108 90.1562 253.262 89.6689 252.433C87.6535 249.001 84.5892 247.392 80.6589 247.26C76.5865 247.124 72.6224 247.847 68.7147 248.838C61.4586 250.679 54.2371 252.655 46.9923 254.541C39.0822 256.6 31.1076 258.386 22.9945 259.409C19.6288 259.834 16.2082 259.861 12.8092 259.963C11.8114 259.993 10.7646 259.774 9.8075 259.462C8.13179 258.917 7.85844 257.589 9.14129 256.347C9.74416 255.762 10.4479 255.211 11.2076 254.873C13.4319 253.884 15.6581 252.855 17.9715 252.119C25.2825 249.792 32.7854 248.224 40.3432 246.975C48.4011 245.643 56.4801 244.419 64.5755 243.34C70.8199 242.508 77.1118 241.983 83.421 242.252C85.8411 242.355 88.2854 242.712 90.643 243.272C93.9267 244.051 96.2257 246.175 97.6075 249.274C98.9859 252.365 99.7189 255.643 100.097 258.965C100.821 265.332 101.452 271.714 101.929 278.104C102.469 285.345 102.76 292.604 103.247 299.849C103.372 301.704 103.68 303.578 104.17 305.37C104.852 307.862 106.218 308.598 108.68 307.83C110.513 307.259 112.286 306.462 114.032 305.652C119.346 303.187 124.763 301.029 130.501 299.758C138.197 298.054 145.971 297.486 153.842 297.99C164.427 298.668 174.745 300.784 184.931 303.627C194.162 306.203 203.353 308.927 212.605 311.425C219.234 313.215 225.966 314.599 232.815 315.256C239.707 315.916 246.561 315.599 253.236 313.653C268.896 309.087 284.27 303.775 298.492 295.595C309.968 288.994 320.402 281.003 329.945 271.847C334.206 267.759 338.376 263.578 342.573 259.424C344.185 257.829 345.703 256.137 347.361 254.593C348.561 253.476 349.916 252.526 351.208 251.51C351.609 251.194 352.059 250.936 352.437 250.597C353.6 249.556 353.645 248.531 352.585 247.353C351.558 246.211 350.208 245.633 348.758 245.262C345.318 244.38 341.893 244.658 338.48 245.431C332.627 246.755 327.397 249.47 322.522 252.851C318.654 255.533 314.949 258.453 311.189 261.29C308.287 263.479 305.398 265.689 302.09 267.248C301.017 267.754 299.883 268.135 298.762 268.531C298.398 268.659 297.979 268.72 297.594 268.69C296.537 268.607 296.093 267.822 296.593 266.894C296.831 266.453 297.166 266.034 297.542 265.702C298.52 264.841 299.48 263.935 300.561 263.218C309.547 257.252 318.674 251.51 328.166 246.381C330.698 245.013 333.416 243.941 336.134 242.976C341.17 241.188 346.3 241.655 351.431 242.651C353.095 242.974 354.795 243.132 356.486 243.271C356.935 243.308 357.746 243.071 357.805 242.821C357.912 242.366 357.71 241.714 357.413 241.307C355.997 239.362 354.048 238.118 351.776 237.395C348.094 236.224 344.373 236.462 340.668 237.245C334.313 238.587 328.522 241.332 323.041 244.71C318.744 247.359 314.605 250.262 310.379 253.028C307.91 254.644 305.455 256.288 302.914 257.785C298.12 260.61 292.992 262.517 287.406 263.04C287.248 263.055 287.097 263.133 286.648 263.274C287.25 263.588 287.646 263.825 288.066 264.009C290.929 265.264 293.756 266.578 296.213 268.562C298.396 270.325 300.053 272.46 300.661 275.234C301.988 281.287 298.555 291.209 289.23 292.599C284.897 293.246 280.525 293.355 276.152 293.201C270.872 293.014 265.588 292.704 260.483 291.233C257.189 290.284 253.818 289.92 250.459 289.397C245.511 288.627 240.75 287.114 235.992 285.595C232.913 284.611 229.833 283.608 226.702 282.817C221.444 281.489 216.124 281.703 210.812 282.553C206.045 283.315 201.276 284.08 196.424 283.704C195.073 283.599 193.732 283.34 192.395 283.101C191.959 283.023 191.515 282.841 191.138 282.605C190.196 282.014 190.204 281.146 191.191 280.636C191.783 280.331 192.47 280.088 193.127 280.051C195.673 279.907 198.242 279.618 200.769 279.815C207.978 280.379 215.172 280.229 222.37 279.788C229.397 279.358 236.178 280.291 242.631 283.239C245.727 284.653 248.861 285.982 251.971 287.366C254.866 288.656 257.886 289.17 261.059 289.256C267.638 289.434 274.209 289.863 280.788 290.069C283.557 290.156 286.354 290.112 289.106 289.82C292.361 289.474 294.559 287.481 295.913 284.546C296.023 284.308 295.997 284.008 296.035 283.737C297.811 281.169 298.216 276.953 296.701 275.447C296.701 277.251 296.777 278.944 296.673 280.626C296.608 281.678 296.272 282.713 296.058 283.755ZM271.313 126.98C271.911 123.209 269.894 117.516 267.171 116.133C269.787 119.522 271.016 123.087 271.312 126.982C271.38 127.132 271.511 127.284 271.508 127.433C271.468 129.913 271.436 132.394 271.347 134.873C271.311 135.848 271.14 136.818 271.031 137.79C272.001 136.98 272.24 135.948 272.2 134.887C272.107 132.466 271.939 130.049 271.765 127.633C271.749 127.409 271.468 127.204 271.313 126.98ZM293.668 289.536C294.264 289.13 294.938 288.803 295.444 288.306C298.2 285.598 299.522 282.217 299.797 278.424C300.008 275.496 299.022 272.908 296.939 270.875C295.655 269.621 294.11 268.631 292.656 267.558C292.33 267.317 291.896 267.223 291.455 267.037C292.675 268.457 293.813 269.778 294.945 271.104C295.527 271.786 296.033 272.546 296.685 273.151C298.245 274.596 299.07 276.314 298.807 278.45C298.312 282.472 297.141 286.199 293.991 289.022C293.846 289.152 293.793 289.385 293.696 289.569C293.081 289.804 292.466 290.039 291.851 290.274C291.913 290.393 291.975 290.511 292.037 290.63C292.581 290.265 293.125 289.901 293.668 289.536ZM324.313 250.009C323.754 250.252 323.157 250.435 322.641 250.75C317.27 254.025 311.894 257.292 306.559 260.625C304.35 262.005 302.213 263.505 300.093 265.02C299.241 265.628 298.522 266.421 297.743 267.131C297.812 267.248 297.881 267.366 297.95 267.484C298.525 267.339 299.139 267.279 299.665 267.033C301.253 266.289 302.896 265.61 304.355 264.655C306.864 263.012 309.257 261.189 311.687 259.425C315.721 256.496 319.747 253.556 323.771 250.612C323.985 250.455 324.144 250.224 324.329 250.027C324.861 249.782 325.394 249.538 325.927 249.293C325.853 249.177 325.779 249.06 325.705 248.943C325.241 249.298 324.777 249.653 324.313 250.009ZM259.519 106.604C256.312 106.655 253.472 105.745 250.739 104.44C250.329 104.245 249.905 104.059 249.541 103.796C248.635 103.141 248.715 102.239 249.758 101.884C250.498 101.632 251.309 101.577 252.091 101.458C253.883 101.188 255.813 101.268 257.443 100.604C261.237 99.0609 265.184 98.064 269.054 96.7992C271.415 96.0276 273.655 94.8739 275.929 93.8469C279.601 92.1883 283.272 90.5373 287.168 89.4484C291.469 88.2465 295.837 87.5171 300.285 88.1892C304.318 88.7985 308.319 89.6309 312.318 90.4395C319.055 91.8013 325.82 92.9234 332.7 93.2114C342.59 93.6256 352.432 92.7676 362.283 92.1108C368.384 91.704 374.407 92.1276 380.299 93.9329C386.141 95.7224 391.562 98.4244 396.893 101.346C400.028 103.064 403.15 104.81 406.348 106.402C407.801 107.126 409.398 107.614 410.979 108.018C412.879 108.502 414.495 107.802 415.563 106.192C416.34 105.02 417.022 103.746 417.516 102.43C421.029 93.0802 424.174 83.61 426.411 73.863C427.172 70.5443 427.827 67.1999 427.572 63.7529C427.346 60.6957 426.046 58.3165 423.279 56.8713C421.822 56.1105 420.354 55.3545 418.835 54.7321C412.202 52.0137 405.904 48.6528 399.755 44.9856C393.359 41.1705 386.691 37.8824 379.718 35.269C372.649 32.6194 365.717 29.6616 358.828 26.5805C351.362 23.2412 343.953 19.8275 337.145 15.227C335.129 13.8646 332.953 12.7316 330.812 11.563C327.509 9.7595 323.976 8.50663 320.361 7.51146C313.417 5.6001 306.463 3.72664 299.499 1.89031C293.915 0.417822 288.686 1.25785 283.934 4.59306C282.17 5.83048 280.452 7.1414 278.786 8.50701C269.962 15.7388 261.136 22.9693 252.363 30.2632C248.656 33.3458 245.022 36.5226 241.455 39.7672C238.152 42.7721 236.013 46.5475 234.618 50.7821C233.219 55.0277 232.694 59.4095 232.438 63.8326C232.065 70.2898 231.688 76.7488 231.467 83.2122C231.359 86.3804 231.53 89.5646 231.715 92.7331C231.783 93.8967 232.152 95.0769 232.576 96.1749C232.965 97.1791 233.76 97.3567 234.644 96.7223C235.181 96.3362 235.706 95.8229 236.014 95.2476C236.679 94.0026 237.253 92.7015 237.766 91.3847C238.3 90.0123 238.659 88.5713 239.197 87.2008C241.141 82.2558 244.16 78.1745 248.809 75.428C249.083 75.2659 249.314 75.0308 249.64 74.7701C249.091 74.5639 248.663 74.4272 248.255 74.2458C246.209 73.3368 245.839 71.9154 247.321 70.232C248.062 69.3895 249.018 68.7378 249.864 67.9854C251.218 66.7819 252.708 65.6923 253.879 64.3307C256.522 61.2603 256.386 58.9056 253.627 55.9237C252.972 55.216 252.217 54.5937 251.618 53.8443C251.347 53.5043 251.109 52.8326 251.267 52.5163C251.603 51.8419 252.236 52.2116 252.748 52.4542C253.003 52.5755 253.245 52.7263 253.489 52.871C254.415 53.4211 255.319 54.0136 256.269 54.5183C258.565 55.7382 260.855 55.6247 263.082 54.3294C263.815 53.9032 264.516 53.4089 265.179 52.8807C267.281 51.2083 269.152 49.2876 270.611 47.042C272.246 44.5253 273.687 41.8838 275.247 39.3174C275.459 38.9688 275.869 38.7401 276.187 38.456C276.424 38.8591 276.705 39.2444 276.883 39.6723C276.985 39.918 276.909 40.2335 276.935 40.5158C277.032 41.5873 277.059 42.6726 277.256 43.726C277.715 46.1752 278.753 47.0817 281.249 46.9204C282.93 46.8116 284.611 46.4331 286.25 46.0102C290.346 44.9536 292.933 42.3255 293.981 38.2204C294.29 37.0131 294.513 35.7844 294.802 34.5717C294.923 34.0621 294.915 33.3987 295.967 33.43C295.984 33.9875 296.028 34.518 296.012 35.0466C295.952 37.0301 295.767 39.0161 295.824 40.9957C295.909 44.0012 296.147 47.0067 297.092 49.8946C298.142 53.1001 299.474 53.6898 302.419 52.1323C304.272 51.1523 306.02 49.9777 307.833 48.9201C309.498 47.9491 311.163 46.9728 312.876 46.0924C313.51 45.7665 314.275 45.5936 314.992 45.5533C316.036 45.4944 316.473 46.2257 315.89 47.1025C315.398 47.8432 314.764 48.5586 314.038 49.0611C312.128 50.383 310.199 51.7021 308.162 52.8109C298.229 58.2194 287.961 62.882 277.206 66.4334C271.875 68.1937 266.564 70.0135 261.229 71.7608C254.188 74.0667 249.989 79.5045 245.821 85.6274C246.702 85.3077 247.203 85.0896 247.725 84.9426C249.794 84.3593 251.85 83.6995 253.95 83.2578C255.939 82.8397 257.917 83.1268 259.737 84.0935C261.767 85.1722 262.84 86.8309 262.76 89.1958C262.676 91.6554 261.755 93.7915 259.97 95.3918C258.509 96.701 256.85 97.8679 255.107 98.7641C253 99.8477 250.711 100.578 248.502 101.465C247.519 101.859 246.541 102.263 245.368 102.741C247.309 105.905 248.684 109.085 248.732 112.749C252.067 111.724 255.297 110.472 258.216 113.389C260.5 111.471 259.767 109.11 259.519 106.604ZM246.792 115.254C244.173 116.912 242.352 119.032 241.222 121.725C239.703 125.347 239.401 129.1 240.301 132.906C241.409 137.591 243.96 141.161 248.555 143.037C248.817 143.144 249.074 143.267 249.322 143.405C250.045 143.808 250.385 144.397 250.193 145.242C250.105 145.629 250.045 146.023 249.964 146.412C249.681 147.776 249.915 149.044 250.895 150.043C251.557 150.717 251.638 151.437 251.377 152.224C250.918 153.605 251.378 154.711 252.392 155.58C253.418 156.46 253.685 157.533 253.525 158.786C253.337 160.248 253.126 161.708 252.931 163.17C252.71 164.825 252.702 166.462 253.478 167.999C254.007 169.047 253.971 170.066 253.462 171.104C253.238 171.562 253.075 172.049 252.867 172.515C252.167 174.085 252.158 175.719 253.145 177.07C254.422 178.818 254.325 180.396 253.205 182.084C253.082 182.27 253.019 182.498 252.94 182.71C252.624 183.558 252.661 184.38 253.147 185.159C253.417 185.592 253.688 186.026 253.977 186.447C254.88 187.765 254.853 189.077 254.04 190.434C253.546 191.258 253.091 192.111 252.69 192.984C252.247 193.945 252.121 194.987 252.582 195.959C253.712 198.337 255.74 199.684 258.06 200.764C258.633 200.1 259.067 199.584 258.677 198.829C257.766 197.067 257.57 195.147 257.452 193.219C257.107 187.556 256.721 181.894 256.48 176.226C256.167 168.857 255.821 161.484 255.803 154.112C255.794 150.276 256.455 146.439 256.831 142.604C256.869 142.215 257.009 141.832 257.129 141.455C257.303 140.907 257.492 140.292 258.218 140.365C258.936 140.438 259.024 141.115 259.114 141.653C259.234 142.377 259.269 143.12 259.286 143.856C259.371 147.601 259.425 151.346 259.516 155.091C259.674 161.616 259.848 168.141 260.023 174.665C260.203 181.414 260.393 188.163 260.58 194.913C260.591 195.324 260.617 195.735 260.65 196.462C260.878 196.02 260.977 195.89 261.014 195.744C261.125 195.305 261.231 194.863 261.307 194.416C262.362 188.26 262.091 182.084 261.481 175.917C260.596 166.985 260.046 158.041 260.314 149.062C260.359 147.533 260.45 145.994 260.676 144.483C261.018 142.188 262.127 141.229 264.432 141.066C265.166 141.014 265.908 141.039 266.645 141.074C267.961 141.136 268.802 140.483 269.282 139.329C269.519 138.757 269.711 138.152 269.812 137.543C270.007 136.37 270.147 135.185 270.267 134.001C270.946 127.265 269.953 120.976 265.319 115.671C265.17 115.501 265.034 115.317 264.911 115.127C263.852 113.504 262.173 113.443 260.311 113.097C260.367 113.921 260.41 114.466 260.44 115.011C260.498 116.085 260.608 117.161 260.585 118.233C260.561 119.339 260.149 120.343 259.39 121.168C258.14 122.527 256.437 122.493 255.271 121.064C254.483 120.1 254.182 118.964 254.283 117.723C254.313 117.36 254.338 116.996 254.372 116.527C251.621 116.977 249.13 116.716 246.792 115.254ZM255.066 55.2857C255.017 55.3508 254.968 55.416 254.919 55.481C255.157 55.8377 255.383 56.2032 255.636 56.5495C257.349 58.8979 257.383 61.3578 255.758 63.6745C254.698 65.1864 253.326 66.4967 251.991 67.793C251.102 68.6571 250 69.2981 249.057 70.1134C248.39 70.6902 247.403 71.3065 247.737 72.3036C248.074 73.3085 249.213 73.4252 250.173 73.5617C251.528 73.754 252.729 73.2514 253.938 72.726C256.639 71.5514 259.344 70.3794 262.076 69.2807C263.811 68.5836 265.592 67.9977 267.365 67.4014C271.65 65.9604 274.204 62.9161 275.512 58.6948C276.161 56.6004 276.474 54.5937 274.52 52.9153C274.217 52.6552 274.037 51.9658 274.148 51.5731C274.34 50.8933 275.073 50.9273 275.596 51.1124C276.713 51.5075 277.944 51.8225 278.843 52.5323C280.378 53.7448 281.815 53.6479 283.428 52.8899C285.327 51.9976 287.255 51.1689 289.165 50.3003C291.145 49.3997 292.886 49.7643 294.515 51.1648C297.023 53.3214 296.935 55.9482 294.217 57.7998C293.396 58.3591 292.523 58.8417 291.674 59.3594C292.314 59.3085 292.892 59.1224 293.43 58.8547C298.406 56.3801 303.398 53.935 308.334 51.3823C309.988 50.5267 311.509 49.4071 313.062 48.3644C313.599 48.0038 314.047 47.5104 314.535 47.0778C314.463 46.9647 314.39 46.8516 314.318 46.7386C313.474 47.1289 312.595 47.4576 311.793 47.9216C309.977 48.9727 308.209 50.1068 306.403 51.1754C305.037 51.9833 303.687 52.839 302.251 53.5024C299.354 54.8405 297.416 54.0936 296.339 51.0867C295.696 49.2898 295.364 47.3673 295.034 45.4765C294.77 43.9618 294.72 42.4096 294.565 40.7682C293.645 41.9941 292.982 43.2315 292.002 44.1181C288.519 47.2686 284.276 48.2592 279.699 47.9704C278.232 47.8778 277.151 46.9916 276.615 45.6174C276.29 44.7834 276.143 43.8766 275.954 42.9942C275.853 42.5253 275.834 42.0392 275.732 41.1733C275.23 41.9975 274.971 42.4788 274.66 42.9246C272.879 45.4799 271.246 48.1629 269.242 50.5314C267.762 52.2814 265.903 53.7752 264.014 55.0993C261.576 56.8082 258.844 56.9816 256.08 55.7457C255.742 55.5936 255.404 55.439 255.066 55.2857ZM282.836 269.807C279.878 269.885 276.873 270.352 274.149 271.932C271.711 273.347 269.929 275.334 269.956 278.279C269.983 281.227 271.797 283.177 274.281 284.528C276.836 285.916 279.566 286.885 282.404 287.453C284.223 287.816 286.104 288.044 287.956 288.035C291.073 288.021 293.334 286.501 294.593 283.595C295.827 280.744 296.08 277.817 295.345 274.79C295.057 273.602 294.427 272.802 293.299 272.277C290.018 270.749 286.602 269.848 282.836 269.807ZM276.231 52.4672C277.232 54.2415 277.451 55.9606 276.963 57.7956C276.315 60.2288 275.361 62.5166 273.792 64.5147C273.541 64.8338 273.303 65.1632 272.813 65.8152C280.042 63.2332 286.77 60.5672 293.16 57.1032C293.507 56.9154 293.833 56.6747 294.13 56.4151C295.315 55.3815 295.496 54.0021 294.466 52.8086C292.804 50.8813 291.527 50.5755 289.528 51.4127C288.639 51.7848 287.776 52.2158 286.894 52.6045C285.546 53.1991 284.202 53.8049 282.837 54.3601C281.36 54.9615 279.996 54.8045 278.683 53.7989C277.954 53.2403 277.054 52.9038 276.231 52.4672ZM258.828 196.018C258.981 196.016 259.134 196.015 259.288 196.014C259.353 194.947 259.5 193.878 259.471 192.813C259.329 187.653 259.117 182.495 258.972 177.335C258.717 168.261 258.481 159.187 258.262 150.112C258.21 147.982 258.254 145.85 258.254 143.719C258.143 143.706 258.032 143.692 257.92 143.679C257.815 144.037 257.65 144.389 257.613 144.755C257.376 147.067 256.989 149.382 256.984 151.697C256.972 157.48 257.043 163.268 257.258 169.047C257.498 175.508 257.921 181.962 258.289 188.417C258.434 190.953 258.646 193.484 258.828 196.018ZM225.046 281.114C233.475 283.028 241.394 286.738 249.995 288.023C249.739 287.778 249.459 287.597 249.159 287.462C246.731 286.365 244.303 285.267 241.867 284.188C239.163 282.99 236.367 282.071 233.456 281.522C230.677 280.998 227.879 280.811 225.046 281.114ZM264.755 106.221C263.157 106.244 261.932 106.187 260.871 106.693C260.871 108.491 260.871 110.164 260.871 111.873C262.008 112.193 263.069 112.492 264.309 112.842C264.461 110.592 264.602 108.494 264.755 106.221ZM191.891 281.407C194.858 283.091 204.254 282.999 209.176 281.4C203.421 281.208 197.856 280.432 191.891 281.407ZM259.247 105.436C259.247 103.991 259.247 102.744 259.247 101.481C257.699 101.789 256.328 102.112 254.94 102.325C253.59 102.531 252.222 102.625 250.862 102.769C253.437 104.553 256.172 105.415 259.247 105.436ZM290.531 290.979C281.438 291.878 272.719 290.372 263.676 290.611C269.337 292.279 285.978 292.517 290.531 290.979ZM256.939 114.015C254.95 112.166 251.17 112.45 248.304 114.569C250.669 116.073 254.457 115.862 256.939 114.015ZM258.027 119.258C256.53 118.391 258.281 116.492 256.661 115.875C255.262 117.116 255.055 119.063 256.183 120.336C256.898 121.142 257.798 121.18 258.516 120.373C258.809 120.044 259.067 119.634 259.196 119.217C259.685 117.64 259.555 116.078 258.883 114.521C258.644 116.066 259.091 117.726 258.027 119.258ZM264.376 104.93C263.797 102.227 262.56 100.883 260.687 100.854C260.687 102.287 260.687 103.717 260.687 105.32C261.955 105.186 263.106 105.064 264.376 104.93ZM247.444 113.3C246.174 112.41 245.763 111.006 245.326 109.629C244.829 108.063 244.394 106.477 243.903 104.908C243.825 104.657 243.596 104.454 243.219 103.919C243.219 105.048 243.161 105.787 243.23 106.513C243.471 109.081 244.451 111.331 246.259 113.192C246.555 113.496 246.864 113.965 247.444 113.3ZM240.293 95.0413C240.426 96.9689 241.436 98.4207 242.876 99.6266C242.569 97.8031 241.373 96.4657 240.293 95.0413ZM246.939 110.845C247.078 110.818 247.216 110.791 247.354 110.764C247.174 109.127 246.636 107.608 245.863 106.167C245.751 106.202 245.64 106.238 245.528 106.273C245.998 107.797 246.469 109.321 246.939 110.845Z" fill="var(--fill-0, #91E3BA)"/>
</svg>
