<svg width="20" height="20" viewBox="0 0 20 20" fill="none" xmlns="http://www.w3.org/2000/svg">
<path id="Vector" d="M8.55859 17.5C8.70488 17.7533 8.91527 17.9637 9.16863 18.11C9.42199 18.2563 9.70938 18.3333 10.0019 18.3333C10.2945 18.3333 10.5819 18.2563 10.8352 18.11C11.0886 17.9637 11.299 17.7533 11.4453 17.5" stroke="#213F4F" stroke-width="1.66667" stroke-linecap="round" stroke-linejoin="round"/>
<path id="Vector_2" d="M2.71772 12.771C2.60886 12.8903 2.53702 13.0387 2.51094 13.1981C2.48486 13.3575 2.50566 13.5211 2.57081 13.6688C2.63597 13.8166 2.74267 13.9423 2.87794 14.0306C3.0132 14.1188 3.17121 14.1659 3.33272 14.166H16.6661C16.8276 14.1661 16.9856 14.1192 17.1209 14.0311C17.2563 13.943 17.3631 13.8175 17.4285 13.6698C17.4938 13.5221 17.5148 13.3586 17.4889 13.1992C17.4631 13.0398 17.3914 12.8913 17.2827 12.7718C16.1744 11.6293 14.9994 10.4152 14.9994 6.66602C14.9994 5.33993 14.4726 4.06816 13.5349 3.13048C12.5972 2.1928 11.3255 1.66602 9.99939 1.66602C8.67331 1.66602 7.40154 2.1928 6.46386 3.13048C5.52618 4.06816 4.99939 5.33993 4.99939 6.66602C4.99939 10.4152 3.82356 11.6293 2.71772 12.771Z" stroke="#213F4F" stroke-width="1.66667" stroke-linecap="round" stroke-linejoin="round"/>
</svg>
