<svg width="20" height="20" viewBox="0 0 20 20" fill="none" xmlns="http://www.w3.org/2000/svg">
<path id="Vector" d="M8.33433 16.6667C8.33426 16.8215 8.37734 16.9733 8.45874 17.1051C8.54014 17.2368 8.65664 17.3433 8.79517 17.4125L10.4618 18.2458C10.5889 18.3093 10.7301 18.3393 10.872 18.3329C11.014 18.3264 11.1519 18.2838 11.2727 18.2091C11.3935 18.1344 11.4932 18.03 11.5624 17.9059C11.6315 17.7818 11.6677 17.6421 11.6677 17.5V11.6667C11.6679 11.2537 11.8214 10.8554 12.0985 10.5492L18.1177 3.89167C18.2256 3.77213 18.2965 3.6239 18.3219 3.4649C18.3473 3.3059 18.3262 3.14294 18.2609 2.99573C18.1957 2.84851 18.0892 2.72335 17.9543 2.63538C17.8195 2.5474 17.662 2.50038 17.501 2.5H2.501C2.33984 2.50006 2.18215 2.54685 2.04704 2.6347C1.91193 2.72255 1.80519 2.84769 1.73976 2.99497C1.67432 3.14225 1.65299 3.30534 1.67836 3.46449C1.70372 3.62364 1.77469 3.77203 1.88267 3.89167L7.9035 10.5492C8.18062 10.8554 8.33415 11.2537 8.33433 11.6667V16.6667Z" stroke="#213F4F" stroke-width="1.66667" stroke-linecap="round" stroke-linejoin="round"/>
</svg>
